<svg id="Capa_1" enable-background="new 0 0 512 512" height="512" viewBox="0 0 512 512" width="512" xmlns="http://www.w3.org/2000/svg"><g><circle cx="256" cy="256" fill="#ff6379" r="256"/><path d="m413.041 275.76-95.388-95.388-14.554 14.554-32.345-32.345-161.114 161.113-35.024 5.533 182.755 182.755c110.839-.583 204.996-71.599 240.017-170.578l-68.196-68.196z" fill="#ff415b"/><g><path d="m429.192 321.41h-346.963v-24.315l4-15.676-4-15.676v-27.618l14.93-58.225 220.492.516 15.446 18.3 18.957 27.791 27.957 27.79 38.4 14.766 10.781 15.706z" fill="#eef4ff"/><path d="m418.411 269.063-38.4-14.766-27.957-27.79-18.957-27.791-15.446-18.3-61.651-.144v141.138h173.192v-36.641z" fill="#d6e9f8"/><path d="m74.616 305.327h51.525v23.901h-51.525z" fill="#7a3eb4"/><path d="m256 329.228h-108.231v-15h108.231l4.531 7.5z" fill="#7a3eb4"/><path d="m385.859 305.327h51.525v23.901h-51.525z" fill="#613393"/><path d="m266.144 254.297v-55.582h44.951l46.914 55.582z" fill="#2681ff"/><path d="m173.322 198.715h82.678v55.583h-82.678z" fill="#8bbbff"/><path d="m82.229 265.743h8.561v31.351h-8.561z" fill="#ff1f3e"/><path d="m106.714 265.743h251.295v20.419h-251.295z" fill="#ff1f3e"/><g><path d="m160.376 220.198h-19.563v-19.563h-14.537v19.563h-19.562v14.537h19.562v19.562h14.537v-19.562h19.563z" fill="#ff1f3e"/></g><path d="m418.411 269.063c-.496 1.288-.779 2.682-.779 4.146 0 6.385 5.176 11.56 11.56 11.56v-11.56z" fill="#edbe00"/><path d="m380.011 254.297-46.914-55.581h-9l46.914 55.581z" fill="#2681ff"/><path d="m256 314.228h114.961v15h-114.961z" fill="#613393"/><path d="m256 265.743h102.009v20.419h-102.009z" fill="#af3244"/><path d="m256 183.23h-14.752v-20.651h14.752l4.179 10.326z" fill="#005fe0"/><path d="m256 162.579h14.752v20.652h-14.752z" fill="#0051be"/><g><circle cx="135.142" cy="321.41" fill="#464646" r="28.69"/><path d="m163.832 321.41c0 15.845-12.845 28.69-28.69 28.69v-57.38c15.845 0 28.69 12.845 28.69 28.69z" fill="#2d2d2d"/><circle cx="135.142" cy="321.41" fill="#7a3eb4" r="15.357"/><path d="m150.499 321.41c0-8.482-6.876-15.357-15.357-15.357v30.715c8.482-.001 15.357-6.877 15.357-15.358z" fill="#613393"/></g><g><circle cx="383.999" cy="321.41" fill="#2d2d2d" r="28.69"/><circle cx="383.999" cy="321.41" fill="#613393" r="15.357"/></g></g></g></svg>